<svg width="52" height="52" viewBox="0 0 52 52" fill="none" xmlns="http://www.w3.org/2000/svg">
<path d="M26 7.99996H12C10.9391 7.99996 9.92172 8.42139 9.17157 9.17154C8.42143 9.92168 8 10.9391 8 12V40C8 41.0608 8.42143 42.0782 9.17157 42.8284C9.92172 43.5785 10.9391 44 12 44H40C41.0609 44 42.0783 43.5785 42.8284 42.8284C43.5786 42.0782 44 41.0608 44 40V26M41 4.99996C41.7956 4.20432 42.8748 3.75732 44 3.75732C45.1252 3.75732 46.2044 4.20432 47 4.99996C47.7956 5.79561 48.2426 6.87475 48.2426 7.99996C48.2426 9.12518 47.7956 10.2043 47 11L28 30L20 32L22 24L41 4.99996Z" stroke="#00102E" stroke-width="4" stroke-linecap="round" stroke-linejoin="round"/>
</svg>
